# xmcd CD database file
#
# Track frame offsets:
#	150
#	24515
#	52764
#	80783
#	107272
#	130535
#	152577
#	175898
#
# Disc length: 2664 seconds
#
# Revision: 0
# Processed by: cddbd v1.5.2PL0 Copyright (c) Steve Scherf et al.
# Submitted via: CDex 1.70beta2
#
DISCID=510a6608
DTITLE=Randy Cannon - Not Like Before
DYEAR=1900
DGENRE=Jazz
TTITLE0=I Remember You
TTITLE1=If I Only Had A Brain
TTITLE2=Fire and Rain
TTITLE3=Chim Chim Cheree
TTITLE4=Just Friends
TTITLE5=Both Sides Now
TTITLE6=Coming Home
TTITLE7=You're Always There
EXTD=
EXTT0=
EXTT1=
EXTT2=
EXTT3=
EXTT4=
EXTT5=
EXTT6=
EXTT7=
PLAYORDER=
